<svg xmlns="http://www.w3.org/2000/svg" viewBox="0 0 24 24" fill="currentColor">
  <path d="M12 .5C5.65.5.5 5.65.5 12c0 5.1 3.29 9.43 7.86 10.96.57.1.78-.25.78-.56 0-.27-.01-1.16-.02-2.1-3.2.7-3.88-1.38-3.88-1.38-.52-1.33-1.28-1.68-1.28-1.68-1.05-.72.08-.7.08-.7 1.16.08 1.77 1.2 1.77 1.2 1.03 1.76 2.7 1.25 3.36.96.1-.75.4-1.25.73-1.54-2.55-.29-5.23-1.27-5.23-5.64 0-1.25.45-2.27 1.2-3.07-.12-.3-.52-1.5.12-3.12 0 0 .98-.31 3.2 1.18a11.1 11.1 0 0 1 5.82 0c2.22-1.5 3.2-1.18 3.2-1.18.64 1.62.24 2.82.12 3.12.75.8 1.2 1.82 1.2 3.07 0 4.38-2.69 5.35-5.25 5.64.41.36.78 1.08.78 2.18 0 1.57-.01 2.83-.01 3.22 0 .31.21.67.79.56A11.52 11.52 0 0 0 23.5 12C23.5 5.65 18.35.5 12 .5z"></path>
</svg>